<?xml version="1.0" standalone="no"?>
<!DOCTYPE svg PUBLIC "-//W3C//DTD SVG 20010904//EN"
 "http://www.w3.org/TR/2001/REC-SVG-20010904/DTD/svg10.dtd">
<svg version="1.0" xmlns="http://www.w3.org/2000/svg"
 width="512.000000pt" height="512.000000pt" viewBox="0 0 512.000000 512.000000"
 preserveAspectRatio="xMidYMid meet">
<metadata>
Created by potrace 1.14, written by Peter Selinger 2001-2017
</metadata>
<g transform="translate(0.000000,512.000000) scale(0.100000,-0.100000)"
fill="#000000" stroke="none">
<path d="M2353 4135 c-327 -71 -627 -299 -650 -494 -10 -84 54 -184 149 -232
l38 -19 0 -117 c0 -110 -2 -119 -26 -155 -29 -42 -42 -131 -30 -212 9 -56 52
-110 100 -126 31 -10 35 -16 51 -78 33 -131 115 -253 223 -332 33 -23 34 -27
28 -72 -10 -70 -15 -79 -41 -72 -22 5 -119 -11 -380 -62 -156 -31 -228 -67
-320 -159 -107 -107 -165 -244 -165 -393 0 -63 3 -73 25 -90 21 -17 25 -28 25
-74 0 -46 -3 -55 -22 -63 -22 -10 -23 -15 -26 -157 -3 -168 9 -208 71 -247
l34 -21 1128 0 1128 0 34 21 c18 12 42 38 53 60 19 35 20 60 20 340 0 332 -5
367 -63 489 -42 87 -149 194 -237 238 -64 31 -127 46 -424 102 -65 12 -129 19
-141 16 -26 -7 -31 2 -41 72 l-6 47 60 47 c102 79 168 186 201 324 11 44 17
52 46 63 50 18 92 71 101 127 12 81 -1 170 -30 212 -24 36 -26 45 -26 154 l0
116 43 25 c53 31 75 52 113 101 25 35 29 48 29 105 -1 48 -7 77 -22 107 -96
183 -356 351 -630 409 -87 19 -335 18 -420 0z m-295 -952 l3 -41 -35 10 c-35
11 -36 13 -36 61 l0 49 33 -19 c27 -16 32 -26 35 -60z m1082 29 c0 -47 -1 -49
-35 -59 l-35 -11 0 39 c0 34 5 42 33 59 17 11 33 20 35 20 1 0 2 -22 2 -48z
m-870 -50 c109 -25 480 -24 597 1 46 10 90 20 98 23 12 5 15 -5 15 -62 0 -106
34 -128 126 -79 26 14 53 25 60 25 22 0 34 -35 34 -97 0 -77 -18 -103 -70
-103 -49 0 -70 -21 -70 -70 0 -21 -9 -67 -20 -103 -78 -254 -365 -400 -625
-319 -81 24 -196 100 -242 159 -60 75 -103 186 -103 265 0 47 -21 68 -70 68
-52 0 -70 26 -70 103 0 99 23 117 95 72 47 -29 81 -31 107 -8 14 13 18 31 18
86 0 67 1 69 23 63 12 -4 56 -14 97 -24z m134 -877 c26 -8 83 -17 125 -21 72
-6 97 -2 249 33 20 5 22 2 22 -30 0 -20 8 -52 17 -72 10 -22 13 -38 7 -44 -23
-21 -254 -191 -259 -191 -5 0 -236 170 -259 191 -6 6 -3 22 7 44 9 20 17 51
17 70 0 40 4 41 74 20z m-744 -349 c0 -29 -85 -126 -111 -126 -9 0 -27 8 -39
18 l-21 17 35 47 c20 25 50 58 68 72 l33 26 18 -21 c9 -12 17 -26 17 -33z
m1942 -39 l40 -51 -22 -18 c-28 -23 -41 -23 -73 2 -60 48 -85 111 -57 145 11
13 16 12 42 -6 16 -12 48 -44 70 -72z"/>
</g>
</svg>
